<?xml version="1.0" encoding="utf-8"?>
<!-- Generator: Adobe Illustrator 21.0.0, SVG Export Plug-In . SVG Version: 6.00 Build 0)  -->
<svg version="1.1" xmlns="http://www.w3.org/2000/svg" xmlns:xlink="http://www.w3.org/1999/xlink" x="0px" y="0px"
	 viewBox="0 0 75 96.6" style="enable-background:new 0 0 75 96.6;" xml:space="preserve">
<style type="text/css">
	.st0{fill:#FFB02D;}
	.st1{fill:none;stroke:#FFB02D;stroke-miterlimit:10;}
	.st2{fill:#FFFFFF;}
	.st3{fill:none;stroke:#000000;stroke-width:2;stroke-miterlimit:10;}
	.st4{fill:#BA4A26;}
	.st5{fill:none;stroke:#EA7600;stroke-miterlimit:10;}
	.st6{clip-path:url(#SVGID_2_);}
	.st7{fill:#FFB02D;stroke:#FFB02D;stroke-miterlimit:10;}
</style>
<g id="Layer_2">
</g>
<g id="Layer_5">
	<g>
		<g>
			<polygon class="st0" points="38.2,59.8 36.1,59.2 34.6,57.2 32.6,55.8 30.4,54.9 29.1,52.8 27.1,51.4 25.5,49.7 24.1,47.8 
				23,45.7 21.7,43.7 19.9,42 19.4,39.6 17.8,37.8 17.5,35.4 16,33.4 15.3,31.1 15.2,28.7 14.6,26.4 14.4,24 15.1,21.7 15,19.3 
				15.2,17 15.5,14.6 17.1,12.7 18.1,10.6 19.3,8.6 21.1,7.1 22.9,5.6 24.7,4.2 26.6,2.7 29.1,2.6 31.2,1.3 33.6,1.4 35.9,0.4 
				38.3,0.3 40.7,0.4 43,1.4 45.4,1.5 47.7,2 50,2.8 52.2,3.8 54,5.4 55.8,7 57.6,8.6 58.6,10.9 59.1,13.3 60.7,15.3 60.3,17.8 
				60.8,20.1 61.2,22.5 60.8,24.9 60,27.1 60.2,29.6 59.5,31.9 58.6,34.1 58,36.5 56.6,38.5 55.1,40.4 54.2,42.6 52.8,44.5 
				51.6,46.6 50.2,48.5 49,50.6 47.4,52.4 45.5,53.9 43.6,55.4 41.8,57 39.9,58.4 			"/>
			<polygon points="33.2,35.9 31.1,37 28.9,37.5 26.6,36.8 25.5,34.6 23.7,32.8 23.2,30.4 21.6,28.3 20.9,26 20.4,23.5 20.7,21 
				19.9,18.6 22.2,19.3 24.3,20.1 26.5,21 28.4,22.3 30.5,23.4 32.6,24.5 34.1,26.3 35.1,28.4 36.8,30.2 35.9,32.5 35,34.5 			"/>
			<polygon points="39.2,33.7 41.1,35.2 42.9,37 45.5,36.7 47.5,35.2 49.4,33.7 50.9,31.7 52,29.5 52.8,27.2 54.4,25.3 54.8,22.8 
				56.1,21 55.3,19.7 53.1,20.3 50.9,20.9 48.4,20.9 46.4,22.1 44.4,23.2 42.4,24.4 40.7,25.8 39,27.3 38.2,29.4 38.6,31.5 			"/>
			<polygon points="36.1,23.3 33.8,23 33.9,20.6 34,18.2 34.7,15.9 35.8,13.7 36.1,11.1 37.3,9 38.5,6.6 39.1,9.1 40.4,11 
				41.1,13.1 41.7,15.3 41.4,17.6 41.4,19.8 40,21.6 38.2,22.8 			"/>
			<polygon points="37.9,38.6 35.8,40 35.3,42.1 35.7,44.3 37.9,45.5 40,44.2 41.4,42.1 40.2,39.8 			"/>
		</g>
	</g>
</g>
<g id="ICONS">
</g>
<g id="Illustration">
</g>
</svg>
