<?xml version="1.0" encoding="utf-8"?>
<!-- Generator: Adobe Illustrator 21.0.0, SVG Export Plug-In . SVG Version: 6.00 Build 0)  -->
<svg version="1.1" xmlns="http://www.w3.org/2000/svg" xmlns:xlink="http://www.w3.org/1999/xlink" x="0px" y="0px"
	 viewBox="0 0 30 25" style="enable-background:new 0 0 30 25;" xml:space="preserve">
<style type="text/css">
	.st0{fill:#FFB02D;}
	.st1{fill:none;stroke:#FFB02D;stroke-miterlimit:10;}
	.st2{clip-path:url(#SVGID_2_);}
	.st3{clip-path:url(#SVGID_6_);}
	.st4{clip-path:url(#SVGID_10_);}
	.st5{clip-path:url(#SVGID_12_);}
	.st6{clip-path:url(#SVGID_14_);}
	.st7{clip-path:url(#SVGID_18_);}
	.st8{clip-path:url(#SVGID_22_);}
	.st9{clip-path:url(#SVGID_24_);}
	.st10{clip-path:url(#SVGID_26_);}
	.st11{fill:none;stroke:#EA7600;stroke-miterlimit:10;}
	.st12{fill:#FFFFFF;}
	.st13{fill:none;stroke:#000000;stroke-width:2;stroke-miterlimit:10;}
	.st14{fill:none;stroke:#FFFFFF;stroke-width:2;stroke-miterlimit:10;}
	.st15{fill:#BA4A26;}
	.st16{clip-path:url(#SVGID_30_);}
</style>
<g id="Layer_2">
</g>
<g id="Layer_5">
</g>
<g id="ICONS">
	<g>
		<path d="M27.5,12.5L27,11.3l-0.2-1.2L26.6,9l0-1.3l-0.7-1.1l-0.5-1.1l-0.9-0.9l-0.8-0.9l-0.9-0.8l-0.9-0.7l-1.2-0.4l-1-0.5
			l-1.1-0.3l-1.1-0.7L16.1,0l-1.2,0.4l-1.2-0.3l-1.2,0.1l-1.2,0.4l-1.1,0.6l-1,0.5L8.1,2.2L6.9,2.8L6.2,3.8L5.4,4.7L4.6,5.6l-0.7,1
			L3.3,7.7L2.9,8.9L3,10.1l-0.3,1.1l-0.2,1.2l0.3,1.2l-0.1,1.2l0.2,1.2l0.6,1.1L4,18.4l0.6,1l1,0.8l0.6,1l1.9,1.6l1,0.6l1,0.5
			l1.1,0.6l1.2,0.4l1.2,0.2l1.2-0.2l1.2-0.1l1.2,0l1.2-0.4l1.1-0.4l1.2-0.3l1-0.8l1-0.7l1.7-1.8l0.6-1l0.8-0.9l0.5-1.2l0.3-1.1
			l0.6-1.1l-0.1-1.2L27.5,12.5z M25.7,14.8l-0.5,1l-0.5,1.1L24.4,18l-1.5,1.8l-0.6,1l-1,0.6L20.4,22l-1,0.5l-1,0.4l-1.1,0.3l-1.2,0
			l-1.1,0l-1.2-0.1l-1.1,0L11.5,23l-1-0.6L9.5,22l-1-0.6l-0.7-0.9l-1-0.7l-0.7-0.9L5.4,18l-1-2l-0.1-1.2L4,13.6l-0.2-1.1l0.4-1.1
			l-0.1-1.2l0.7-1l0-1.3l0.5-1l0.6-1l1-0.6l0.8-0.9l0.9-0.6l0.8-0.8l1-0.5l1.1-0.4l1.1-0.3l1.1-0.4l1.1-0.1L16,1.8l1.1,0.3l1.1,0.2
			l1.1,0.2l1,0.5l0.8,0.7L22,4.6l1.1,0.6l0.6,0.9l0.5,1l0.5,1l0.4,1.1l0.3,1.1l0.6,1.1l-0.1,1.1l-0.2,1.2L25.7,14.8z"/>
		<polygon points="19.9,11.6 18.8,11.9 17.7,11.7 16.5,11.6 15.7,11.7 15.7,10.9 15.8,9.8 15.4,8.7 15.7,7.6 15.6,6.5 15.6,5.3 
			15,4.9 14.1,5.3 13.9,6.6 14,7.8 14.2,9 14.3,10.1 14.1,11.3 13.9,12.6 14.8,13.1 18.6,13.4 21.1,13.5 21.6,12.5 21.1,11.8 		"/>
	</g>
</g>
<g id="Layer_16">
</g>
<g id="Taps">
</g>
<g id="Lady_1">
</g>
<g id="Red_Dog_1">
</g>
<g id="Bartender">
</g>
<g id="Bar_Top">
</g>
<g id="Dog_4">
</g>
<g id="Lady_3">
</g>
<g id="Stool_Guy">
</g>
<g id="Stool_Guy_2">
</g>
<g id="Dog_2">
</g>
<g id="Layer_9">
</g>
<g id="Woman_2">
</g>
<g id="Dog_4_1_">
</g>
</svg>
