<?xml version="1.0" encoding="utf-8"?>
<!-- Generator: Adobe Illustrator 21.0.0, SVG Export Plug-In . SVG Version: 6.00 Build 0)  -->
<svg version="1.1" xmlns="http://www.w3.org/2000/svg" xmlns:xlink="http://www.w3.org/1999/xlink" x="0px" y="0px"
	 viewBox="0 0 30 25" style="enable-background:new 0 0 30 25;" xml:space="preserve">
<style type="text/css">
	.st0{fill:#FFB02D;}
	.st1{fill:none;stroke:#FFB02D;stroke-miterlimit:10;}
	.st2{clip-path:url(#SVGID_2_);}
	.st3{clip-path:url(#SVGID_6_);}
	.st4{clip-path:url(#SVGID_10_);}
	.st5{clip-path:url(#SVGID_12_);}
	.st6{clip-path:url(#SVGID_14_);}
	.st7{clip-path:url(#SVGID_18_);}
	.st8{clip-path:url(#SVGID_22_);}
	.st9{clip-path:url(#SVGID_24_);}
	.st10{clip-path:url(#SVGID_26_);}
	.st11{fill:none;stroke:#EA7600;stroke-miterlimit:10;}
	.st12{fill:#FFFFFF;}
	.st13{fill:none;stroke:#000000;stroke-width:2;stroke-miterlimit:10;}
	.st14{fill:none;stroke:#FFFFFF;stroke-width:2;stroke-miterlimit:10;}
	.st15{fill:#BA4A26;}
	.st16{clip-path:url(#SVGID_30_);}
</style>
<g id="Layer_2">
</g>
<g id="Layer_5">
</g>
<g id="ICONS">
	<path d="M27.4,0.2l-0.8-0.1l-1,0.5L24.5,1l-1.2,0.2l-1.1,0.3l-1,0.6l-1.1,0.4L19,2.8L18,3.3l-1,0.6l-1.1,0.2l-1,0.7l-1,0.5
		l-1.2,0.1l-1.1,0.4l-1,0.5L9.4,6.6L8.4,7.1L7.4,7.8L6.3,8.1l-1,0.4L4.1,8.7l-1,0.7L2.4,10L3,10.8l1.2-0.1L5.3,11l1.1,0.5l1.1,0.3
		L8.7,12l1.1,0.1l1.1,0.1l1,0.5l1.2,0l1,0.4l0.3,1.1l0.5,1.1l0.2,1.2l0.3,1.1l0.3,1.1l0.3,1.1l0,1.2l0.2,1.2l0.7,1.1l0.1,1.2l0,0
		l0.8,0.3l0.5-0.3l0.7-1l0.4-1.1l0.2-1.1l0.5-1l0.5-1.1l0.1-1.2l0.4-1l0.7-1l0,0l0.1-1.2l0.8-2.1l0.7-1l0.4-1.1l0.2-1.1l0.5-1l0.6-1
		l0.4-1.1l0.2-1.1l0.7-0.9l0.4-1.1L27.5,1l0,0L27.4,0.2z M17.5,20.2l-0.1-1.1l-0.3-1l-0.4-1l-0.3-1l0.1-1.1l0,0l-0.4-1l0-1.1
		L16,11.7l-0.5-0.2l-1.1-0.3l-1.1-0.1L12.1,11L11,10.8l-1.1-0.5l-1.1-0.2l-1.2,0.3l-1.1-0.4L5.6,10l0.8-0.2l1.1-0.5l1-0.6l1.1-0.4
		L10.7,8l1.1-0.4l1-0.6l1.2-0.1L15,6.4l2.1-1L18.2,5l2.1-1l1.1-0.4l1.2-0.2l1.1-0.3l1-0.6l0.8-0.3L25,3l-0.4,1.1l-0.2,1.1l-0.6,1
		l-0.2,1.2l-0.3,1.1l-0.7,0.9l-0.4,1.1l-0.3,1.1l-0.5,1l-0.4,1.1l-0.1,1.2l-0.5,1L19.8,17L19.1,18l0,0L19,19.2l-0.6,1L18,21.3
		l-0.2,1.1l-0.3-1L17.5,20.2z"/>
</g>
<g id="Layer_16">
</g>
<g id="Taps">
</g>
<g id="Lady_1">
</g>
<g id="Red_Dog_1">
</g>
<g id="Bartender">
</g>
<g id="Bar_Top">
</g>
<g id="Dog_4">
</g>
<g id="Lady_3">
</g>
<g id="Stool_Guy">
</g>
<g id="Stool_Guy_2">
</g>
<g id="Dog_2">
</g>
<g id="Layer_9">
</g>
<g id="Woman_2">
</g>
<g id="Dog_4_1_">
</g>
</svg>
