<?xml version="1.0" encoding="utf-8"?>
<!-- Generator: Adobe Illustrator 21.0.2, SVG Export Plug-In . SVG Version: 6.00 Build 0)  -->
<svg version="1.1" xmlns="http://www.w3.org/2000/svg" xmlns:xlink="http://www.w3.org/1999/xlink" x="0px" y="0px"
	 viewBox="0 0 30 25" style="enable-background:new 0 0 30 25;" xml:space="preserve">
<style type="text/css">
	.st0{fill:#FFB02D;}
	.st1{fill:none;stroke:#FFB02D;stroke-miterlimit:10;}
	.st2{fill:#FFFFFF;}
	.st3{fill:none;stroke:#000000;stroke-width:2;stroke-miterlimit:10;}
	.st4{fill:#BA4A26;}
	.st5{clip-path:url(#SVGID_2_);}
	.st6{clip-path:url(#SVGID_4_);fill:#EBAE3B;}
	.st7{fill:#000101;}
	.st8{fill:#FFB02D;stroke:#FFB02D;stroke-miterlimit:10;}
	.st9{fill:none;stroke:#EA7600;stroke-miterlimit:10;}
	.st10{clip-path:url(#SVGID_6_);}
	.st11{fill:none;stroke:#BA4A26;stroke-miterlimit:10;}
	.st12{fill:none;stroke:#FFB02D;stroke-width:2;stroke-miterlimit:10;}
</style>
<g id="Layer_2">
</g>
<g id="Layer_5">
</g>
<g id="ICONS">
	<g>
		<defs>
			<path id="SVGID_1_" d="M27.5,23.6l-0.9-1.1l-1-1.1l-1.1-0.8l-0.9-1.1l-0.9-1.1l-1.2-0.9l-0.8-0.8l0.7-1.1l0.7-1.4l0.3-1.5
				l0.3-1.4l0.2-1.5L23,8.1l-0.4-1.5l-0.5-1.4l-1.2-1.1l-0.8-1.2l-1.4-0.9l-1.3-0.8l-1.3-0.8l-1.7-0.2L12.8,0l-1.5,0.1L9.7,0.2
				L8.1,0.9L6.8,1.7L5.7,2.9l-1.2,1L3.7,5.4L2.9,6.8L2.5,8.5l-0.1,1.6l0.3,1.6L3,13.3l0.6,1.5l1,1.3l1.1,1.1l1.2,1.1l1.3,0.9
				l1.5,0.5l1.5,0.8l1.7-0.3l1.4-0.1l1.6,0.1l1.3-0.8l1.2-0.7l1-0.7l0.8,0.9L21,20l1.2,0.9l1,1l1,1l1,0.9l1,1.2l1.3-0.3L27.5,23.6z
				 M4.6,8.8L5,7.5l0.4-1.2l0.7-1.2L6.8,4l1-0.9L9,2.7l1.2-0.4L11.5,2l1.4,0l1.3-0.3l1.2,0.5l1.3,0.3l1.1,0.7l0.9,1.1l1.1,0.9
				l0.7,1.2L21,7.7l0,2.8l-0.2,1.4l-0.2,1.4l-0.8,1.1l-0.7,1.2l-2.3,1.5l-1.2,0.6l-1.3,0.5l-1.3,0.1l-2.8-0.3l-1.3-0.5l-1.1-0.8
				l-1.1-1.1l-0.9-1.3l-0.8-1.3l-0.2-1.5l0.1-1.6L4.6,8.8z"/>
		</defs>
		<clipPath id="SVGID_2_">
			<use xlink:href="#SVGID_1_"  style="overflow:visible;"/>
		</clipPath>
		<g class="st5">
			<defs>
				<rect id="SVGID_3_" x="-445.9" y="-135.9" width="1410.5" height="764"/>
			</defs>
			<clipPath id="SVGID_4_">
				<use xlink:href="#SVGID_3_"  style="overflow:visible;"/>
			</clipPath>
			<rect x="-2.5" y="-4.9" class="st6" width="34.9" height="34.8"/>
		</g>
	</g>
</g>
<g id="Illustration">
</g>
</svg>
