<?xml version="1.0" encoding="utf-8"?>
<!-- Generator: Adobe Illustrator 21.0.0, SVG Export Plug-In . SVG Version: 6.00 Build 0)  -->
<svg version="1.1" xmlns="http://www.w3.org/2000/svg" xmlns:xlink="http://www.w3.org/1999/xlink" x="0px" y="0px"
	 viewBox="0 0 30 25" style="enable-background:new 0 0 30 25;" xml:space="preserve">
<style type="text/css">
	.st0{fill:#FFB02D;}
	.st1{fill:none;stroke:#FFB02D;stroke-miterlimit:10;}
	.st2{clip-path:url(#SVGID_2_);}
	.st3{clip-path:url(#SVGID_6_);}
	.st4{clip-path:url(#SVGID_10_);}
	.st5{clip-path:url(#SVGID_12_);}
	.st6{clip-path:url(#SVGID_14_);}
	.st7{clip-path:url(#SVGID_18_);}
	.st8{clip-path:url(#SVGID_22_);}
	.st9{clip-path:url(#SVGID_24_);}
	.st10{clip-path:url(#SVGID_26_);}
	.st11{fill:none;stroke:#EA7600;stroke-miterlimit:10;}
	.st12{fill:#FFFFFF;}
	.st13{fill:none;stroke:#000000;stroke-width:2;stroke-miterlimit:10;}
	.st14{fill:none;stroke:#FFFFFF;stroke-width:2;stroke-miterlimit:10;}
	.st15{fill:#BA4A26;}
	.st16{clip-path:url(#SVGID_30_);}
</style>
<g id="Layer_2">
</g>
<g id="Layer_5">
</g>
<g id="ICONS">
	<g>
		<polygon points="18.6,12.1 18.2,10.9 17.2,10.2 16.3,9.3 15.2,8.6 14.3,9.1 14.6,10 15.5,10.5 16.4,11 17,11.9 17.2,13 17.7,14 
			17.4,15 17.3,16.1 16.9,17.1 16.1,17.8 15.3,18.5 14.8,19.6 13.8,20.2 13,21 12.4,22 11.4,22.7 10.1,22.8 8.9,23.2 7.7,22.9 
			6.5,22.5 5.6,21.8 4.8,21 4.6,19.9 4.1,19 4.3,17.9 4.4,16.9 4.8,15.8 5.5,15 6.5,14.4 7,13.4 8,12.9 8.6,11.9 9.3,11 9.5,10 
			8.2,9.9 7.6,10.9 6.9,11.8 6,12.3 5.1,13.2 4.6,14.2 3.8,15 2.6,17.2 2.6,18.4 2.5,19.7 3.1,20.8 3.6,22 4.5,22.8 5.3,23.7 
			6.5,24.4 7.6,24.7 8.9,25 10.1,24.6 11.3,24.2 12.4,23.7 13.2,22.8 14.2,22.2 14.8,21.2 15.7,20.6 16.6,19.8 17.3,19 18.1,18.1 
			18.7,17 19.1,15.8 19.3,14.5 18.9,13.3 		"/>
		<polygon points="27.3,6.2 27.3,5 27.1,3.7 26.2,2.8 25.6,1.8 24.6,1 23.5,0.4 22.4,0 21.1,0 19.9,0.1 18.7,0.2 17.7,1 16.5,1.6 
			15.9,2.5 15,3.3 14.2,4.1 13.7,5 12.8,5.7 12,6.7 11.4,7.7 10.9,8.9 11,10.1 11,11.4 11.6,12.4 11.9,13.6 12.8,14.5 13.6,15.4 
			14.8,16.1 15.1,16.3 15.8,15.5 15.5,14.7 14.7,13.9 13.9,13.4 13,12.8 12.7,11.7 12.6,10.6 12.5,9.6 12.5,8.5 13.3,7.7 13.7,6.6 
			14.7,6 15.5,5.2 16.9,3.5 17.8,2.8 18.7,1.9 19.9,1.7 21.2,1.4 22.4,1.5 23.6,1.9 24.5,2.8 25.4,3.5 25.5,4.7 25.7,5.7 26,6.8 
			25.7,7.8 25,8.6 24.7,9.8 23.9,10.4 22.9,11.1 22.2,12 21.5,12.8 20.4,13.4 20.7,14.5 21.8,14.8 22.7,14 23.3,13.1 24.1,12.3 
			24.9,11.5 25.6,10.6 26.2,9.6 27,8.7 27.5,7.5 		"/>
	</g>
</g>
<g id="Layer_16">
</g>
<g id="Taps">
</g>
<g id="Lady_1">
</g>
<g id="Red_Dog_1">
</g>
<g id="Bartender">
</g>
<g id="Bar_Top">
</g>
<g id="Dog_4">
</g>
<g id="Lady_3">
</g>
<g id="Stool_Guy">
</g>
<g id="Stool_Guy_2">
</g>
<g id="Dog_2">
</g>
<g id="Layer_9">
</g>
<g id="Woman_2">
</g>
<g id="Dog_4_1_">
</g>
</svg>
