<?xml version="1.0" encoding="utf-8"?>
<!-- Generator: Adobe Illustrator 21.0.2, SVG Export Plug-In . SVG Version: 6.00 Build 0)  -->
<svg version="1.1" xmlns="http://www.w3.org/2000/svg" xmlns:xlink="http://www.w3.org/1999/xlink" x="0px" y="0px"
	 viewBox="0 0 30 18.7" style="enable-background:new 0 0 30 18.7;" xml:space="preserve">
<style type="text/css">
	.st0{fill:#FFB02D;}
	.st1{fill:none;stroke:#FFB02D;stroke-miterlimit:10;}
	.st2{fill:#FFFFFF;}
	.st3{fill:none;stroke:#000000;stroke-width:2;stroke-miterlimit:10;}
	.st4{fill:#BA4A26;}
	.st5{fill:#000101;}
	.st6{fill:#FFB02D;stroke:#FFB02D;stroke-miterlimit:10;}
	.st7{fill:none;stroke:#EA7600;stroke-miterlimit:10;}
	.st8{clip-path:url(#SVGID_2_);}
	.st9{fill:none;stroke:#BA4A26;stroke-miterlimit:10;}
	.st10{fill:none;stroke:#FFB02D;stroke-width:2;stroke-miterlimit:10;}
</style>
<g id="Layer_2">
</g>
<g id="Layer_5">
</g>
<g id="ICONS">
</g>
<g id="Illustration">
	<polygon points="27.5,2.8 26.1,2.4 25.4,3.6 24.5,4.4 23.6,5.3 22.6,6.1 21.5,7.1 20.9,8.2 19.8,8.9 19,10.1 18.2,11 17.1,11.8 
		16.3,12.8 15.2,13.6 14.8,14.1 14.7,14 14.1,12.8 12.9,11.8 11.8,11.1 11,10.3 10.3,9.2 9.3,8.1 8.2,7.3 7.4,6.5 6.6,5.4 5.6,4.5 
		4.8,3.4 3.7,2.6 3.4,2.3 2.6,2.8 2.3,3.8 2.3,3.8 3.5,4.7 4.1,5.7 5.2,6.6 6,7.6 6.9,8.7 8.1,9.4 8.8,10.3 9.5,11.4 10.6,12.4 
		11.7,13.2 12.6,13.9 13.2,15.1 15.2,16.8 16.5,14.9 17.6,14.2 18.4,13.1 19.5,12.4 20.4,11.2 21.1,10.3 22.2,9.6 23,8.3 23.7,7.5 
		24.8,6.7 25.7,5.8 26.8,4.9 27.5,3.7 27.6,3.6 	"/>
</g>
</svg>
