<?xml version="1.0" encoding="utf-8"?>
<!-- Generator: Adobe Illustrator 21.0.0, SVG Export Plug-In . SVG Version: 6.00 Build 0)  -->
<svg version="1.1" xmlns="http://www.w3.org/2000/svg" xmlns:xlink="http://www.w3.org/1999/xlink" x="0px" y="0px"
	 viewBox="0 0 30 25" style="enable-background:new 0 0 30 25;" xml:space="preserve">
<style type="text/css">
	.st0{fill:#FFB02D;}
	.st1{fill:none;stroke:#FFB02D;stroke-miterlimit:10;}
	.st2{clip-path:url(#SVGID_2_);}
	.st3{clip-path:url(#SVGID_6_);}
	.st4{clip-path:url(#SVGID_10_);}
	.st5{clip-path:url(#SVGID_12_);}
	.st6{clip-path:url(#SVGID_14_);}
	.st7{clip-path:url(#SVGID_18_);}
	.st8{clip-path:url(#SVGID_22_);}
	.st9{clip-path:url(#SVGID_24_);}
	.st10{clip-path:url(#SVGID_26_);}
	.st11{fill:none;stroke:#EA7600;stroke-miterlimit:10;}
	.st12{fill:#FFFFFF;}
	.st13{fill:none;stroke:#000000;stroke-width:2;stroke-miterlimit:10;}
	.st14{fill:none;stroke:#FFFFFF;stroke-width:2;stroke-miterlimit:10;}
	.st15{fill:#BA4A26;}
	.st16{clip-path:url(#SVGID_30_);}
</style>
<g id="Layer_2">
</g>
<g id="Layer_5">
</g>
<g id="ICONS">
	<g>
		<path d="M26.7,6.7l-0.9-0.7l-1.1-0.3l-0.9,0.8l-1.2,0.8l-0.5,1.1L22,9.9l0.3,1.3l0.4,1.1l1.1,0.4h1.1l1.1-0.5l1-0.8l0.3-1.3
			l0.3-1.3l-0.1-1.3L26.7,6.7z M23.9,11.5l-0.2-0.7l-0.2-1.1l0-0.9l0.3-0.5l0.9-0.6l0.5-0.4l0.1,0l0.5,0.4l0.4,0.5l0,0.6l-0.2,1.1
			l-0.2,0.8L25.3,11l-0.9,0.4L23.9,11.5z"/>
		<path d="M7.6,7.8L8.3,9l1.3,0.6L11,9.8l0.3-0.1l1.4-1.4l0.6-1.4l-0.5-1.4L12.3,4l-0.8-1l-1.2-0.4L9.1,2l-1,0.6l-0.9,1L6.7,5
			l0.2,1.4L7.6,7.8z M9.2,3.6l0.5,0.3l1,0.4l0.4,0.5l0.5,1.2l0.3,0.9l-0.4,0.9L11,8.4l-1-0.2L9.3,7.9L8.9,7.1L8.3,6L8.2,5.1l0.2-0.7
			L9,3.7L9.2,3.6z"/>
		<path d="M17.4,7.9l1.1,0.3l1.2-0.6l1-1.1l0.6-1.3l0.2-1.6l-0.7-3L19.5,0l-1.3,0L17,0.6l-1,1l-0.4,1.4l-0.5,1.5l0.1,1.5L16,7.4
			L17.4,7.9z M19.1,1.4l0.4,0.2L20,3.7l-0.1,1.1l-0.4,0.9l-0.7,0.8l-0.4,0.3l-1.5-0.5l-0.3-0.6l-0.1-0.9l0.4-1.3l0.3-1.1l0.6-0.6
			l0.7-0.4L19.1,1.4z"/>
		<path d="M7.7,15.6l0.7-1l0.2-1.2l-0.2-1.2l-0.7-1.2l-0.8-1L5.7,9.7L4.6,9.4l-1,0.5l-0.9,0.8l-0.3,1.2l0.5,1.3l0.3,1.3l1.3,0.6
			l1.1,0.7l1.1,0.5L7.7,15.6z M4.7,10.9L5.3,11l0.8,0.3l0.5,0.6l0.5,0.8l0.1,0.7l-0.1,0.6l-0.3,0.4l-0.1,0.1l-0.4-0.2l-1.1-0.7
			l-0.8-0.4l-0.1-0.6l-0.4-1L4,11.4L4.4,11L4.7,10.9z"/>
		<path d="M25.6,15.3l-1.4-0.7l-1.1-1.2l-1.5-0.5l-1-1.3l-0.8-1.6l-1.4-1.2l-1.8-0.6l-1.7,0.2l-1.6,0.7l-1.2,1.2l-1.1,1.1L10,13.1
			l-0.4,1.5l-0.8,1.2l-1.2,1l-0.9,1.4l-0.6,1.6l0.5,1.6l0.2,1.7L8.3,24l1.3,0.7l1.5,0.2l1.5,0.1l1.6-0.3l1.6-0.7l1.4-0.8l1.6,0
			l1.6,0.6l1.8,0.1l1.6-0.4l1.1-1.1l1.4-0.9l0.6-1.5l0.2-1.7l-0.9-1.4L25.6,15.3z M22,22.4l-1.4-0.1L19,21.8l-2.3,0l-1.6,0.9
			l-1.3,0.6l-1.3,0.3l-1.3-0.1L10,23.4l-1-0.6l-0.8-0.5l-0.1-1l-0.4-1.4l0.4-1l0.7-1.1l1.1-1l1.1-1.6l0.4-1.6l0.6-1.2l1-1l1-1
			L15,9.9l1.3-0.1l1.2,0.4l1,0.8l0.7,1.3l1.5,1.8l1.6,0.5l1,1.1l1.2,0.7l0.5,1.1l0.7,1.1l-0.1,1l-0.4,1l-1,0.7l-1.1,1L22,22.4z"/>
	</g>
</g>
<g id="Layer_16">
</g>
<g id="Taps">
</g>
<g id="Lady_1">
</g>
<g id="Red_Dog_1">
</g>
<g id="Bartender">
</g>
<g id="Bar_Top">
</g>
<g id="Dog_4">
</g>
<g id="Lady_3">
</g>
<g id="Stool_Guy">
</g>
<g id="Stool_Guy_2">
</g>
<g id="Dog_2">
</g>
<g id="Layer_9">
</g>
<g id="Woman_2">
</g>
<g id="Dog_4_1_">
</g>
</svg>
